<mxfile host="app.diagrams.net" modified="2024-02-19T14:25:35.158Z" agent="Mozilla/5.0 (Windows NT 10.0; Win64; x64) AppleWebKit/537.36 (KHTML, like Gecko) Chrome/121.0.0.0 Safari/537.36" etag="9UykSFvzcBpKi-5pbl7O" version="23.1.5" type="github">
  <diagram name="Page-1" id="DCyVGvtmPYOmMnQYOihw">
    <mxGraphModel dx="1877" dy="530" grid="1" gridSize="10" guides="1" tooltips="1" connect="1" arrows="1" fold="1" page="1" pageScale="1" pageWidth="827" pageHeight="1169" math="0" shadow="0">
      <root>
        <mxCell id="0" />
        <mxCell id="1" parent="0" />
        <mxCell id="Htybzp_p4gf4UDhlRCsd-19" value="" style="edgeStyle=orthogonalEdgeStyle;rounded=0;orthogonalLoop=1;jettySize=auto;html=1;" edge="1" parent="1" source="Htybzp_p4gf4UDhlRCsd-2" target="Htybzp_p4gf4UDhlRCsd-1">
          <mxGeometry relative="1" as="geometry">
            <Array as="points">
              <mxPoint y="303" />
              <mxPoint y="247" />
            </Array>
          </mxGeometry>
        </mxCell>
        <mxCell id="Htybzp_p4gf4UDhlRCsd-23" value="commit" style="edgeLabel;html=1;align=center;verticalAlign=middle;resizable=0;points=[];" vertex="1" connectable="0" parent="Htybzp_p4gf4UDhlRCsd-19">
          <mxGeometry x="-0.1529" relative="1" as="geometry">
            <mxPoint as="offset" />
          </mxGeometry>
        </mxCell>
        <mxCell id="Htybzp_p4gf4UDhlRCsd-2" value="DÃ©veloppeurs" style="shadow=0;dashed=0;html=1;labelPosition=center;verticalLabelPosition=bottom;verticalAlign=top;align=center;outlineConnect=0;shape=mxgraph.veeam.3d.workstation;" vertex="1" parent="1">
          <mxGeometry x="-100" y="272" width="76" height="62" as="geometry" />
        </mxCell>
        <mxCell id="Htybzp_p4gf4UDhlRCsd-32" value="" style="edgeStyle=orthogonalEdgeStyle;rounded=0;orthogonalLoop=1;jettySize=auto;html=1;" edge="1" parent="1">
          <mxGeometry relative="1" as="geometry">
            <mxPoint x="190" y="160" as="sourcePoint" />
            <mxPoint x="318" y="409" as="targetPoint" />
          </mxGeometry>
        </mxCell>
        <mxCell id="Htybzp_p4gf4UDhlRCsd-33" value="Pull Container image" style="edgeLabel;html=1;align=center;verticalAlign=middle;resizable=0;points=[];" vertex="1" connectable="0" parent="Htybzp_p4gf4UDhlRCsd-32">
          <mxGeometry x="-0.7846" y="-1" relative="1" as="geometry">
            <mxPoint x="29" as="offset" />
          </mxGeometry>
        </mxCell>
        <mxCell id="Htybzp_p4gf4UDhlRCsd-7" value="&lt;span style=&quot;font-weight: normal;&quot;&gt;Azure Container Rgistry (ACR)&lt;/span&gt;" style="sketch=0;html=1;verticalAlign=top;labelPosition=center;verticalLabelPosition=bottom;align=center;spacingTop=-6;fontSize=11;fontStyle=1;fontColor=#999999;shape=image;aspect=fixed;imageAspect=0;image=data:image/svg+xml,PHN2ZyB4bWxucz0iaHR0cDovL3d3dy53My5vcmcvMjAwMC9zdmciIHhtbG5zOnY9Imh0dHBzOi8vdmVjdGEuaW8vbmFubyIgd2lkdGg9IjM3Ny4xNTkzMDIxNjAyNjMwNSIgaGVpZ2h0PSIzMzYuMTYyNDk5MDAzMzEwOCIgdmlld0JveD0iLTAuMDU4MDAwMDA1NzgxNjUwNTQgMC4xMTI5OTk5OTgwMzMwNDY3MiA5OS43OTAwMDA5MTU1MjczNCA4OC45NDMwMDA3OTM0NTcwMyI+JiN4YTs8c3R5bGUgdHlwZT0idGV4dC9jc3MiPiYjeGE7CS5zdDB7ZmlsbDojNjY5ZGY2O30mI3hhOwkuc3Qxe2ZpbGw6I2FlY2JmYTt9JiN4YTsJLnN0MntmaWxsOiM0Mjg1ZjQ7fSYjeGE7PC9zdHlsZT4mI3hhOwk8cGF0aCBjbGFzcz0ic3QwIiBkPSJNNTMuMjQzIDYyLjA5VjQ3LjA5NGwxMy4yMDEgOC40MTZ2MTUuMDM4em0tMzMuMDIxIDBWNDcuMDk0bDEzLjIwMSA4LjQxNnYxNS4wMzh6bTE2LjUxMS0zMi4yODVWMTQuODFsMTMuMjAxIDguNDE2djE1LjAzOHptNjIuOTk5IDMzLjk2VjI1LjQwM2wtOS41NjItMS44ODR2NDIuMTMxem0tOTkuNzg4IDBWMjUuNDAzbDkuNTYyLTEuODg0djQyLjEzMXoiLz4mI3hhOwk8cGF0aCBjbGFzcz0ic3QxIiBkPSJNNTMuMTg1IDQ3LjA5NGwxMy4yNTgtOC4yODcgMTMuMDE2IDguMjM0LTEzLjAxNiA4LjQ2OXptLTMzLjAyMSAwbDEzLjI1OC04LjI4NyAxMy4wMTYgOC4yMzQtMTMuMDE2IDguNDY5ek0zNi42NzUgMTQuODFsMTMuMjU4LTguMjg3IDEzLjAxNiA4LjIzNC0xMy4wMTYgOC40Njl6bTYzLjA1NiA0OC45NTZ2MTIuMjE3TDc3LjAxIDg5LjA1NVY3Ny43NTJ6bTAtMzguMzYzVjEzLjE4Nkw3Ny4wMS4xMTN2MTEuMzAzek0tLjA1OCA2My43NjZ2MTIuMjE3bDIyLjcyMSAxMy4wNzNWNzcuNzUyem0wLTM4LjM2M1YxMy4xODZMMjIuNjYzLjExM3YxMS4zMDN6Ii8+JiN4YTsJPHBhdGggY2xhc3M9InN0MiIgZD0iTTY2LjQ0NCA3MC41NDdWNTUuNTFsMTMuMDE2LTguNDY5djE1LjR6bS0zMy4wMjEgMFY1NS41MWwxMy4wMTYtOC40Njl2MTUuNHptMTYuNTExLTMyLjI4NVYyMy4yMjVsMTMuMDE2LTguNDY5djE1LjR6bTQ5Ljc5OCAyNS41MDNsLTkuNTYyIDUuODh2LTMuOTk2em0wLTM4LjM2M2wtOS41NjItNS44OHYzLjk5NnpNLS4wNTggNjMuNzY2bDkuNTYyIDUuODh2LTMuOTk2em0wLTM4LjM2M2w5LjU2Mi01Ljg4djMuOTk2eiIvPiYjeGE7PC9zdmc+;" vertex="1" parent="1">
          <mxGeometry x="140" y="130" width="42" height="42" as="geometry" />
        </mxCell>
        <mxCell id="Htybzp_p4gf4UDhlRCsd-13" value="" style="swimlane;startSize=0;" vertex="1" parent="1">
          <mxGeometry x="20" y="203" width="190" height="247" as="geometry">
            <mxRectangle x="80" y="203" width="50" height="40" as="alternateBounds" />
          </mxGeometry>
        </mxCell>
        <mxCell id="Htybzp_p4gf4UDhlRCsd-20" value="" style="edgeStyle=orthogonalEdgeStyle;rounded=0;orthogonalLoop=1;jettySize=auto;html=1;" edge="1" parent="Htybzp_p4gf4UDhlRCsd-13" source="Htybzp_p4gf4UDhlRCsd-1" target="Htybzp_p4gf4UDhlRCsd-8">
          <mxGeometry relative="1" as="geometry" />
        </mxCell>
        <mxCell id="Htybzp_p4gf4UDhlRCsd-25" value="Build container&lt;br&gt;&amp;nbsp;image" style="edgeLabel;html=1;align=center;verticalAlign=middle;resizable=0;points=[];" vertex="1" connectable="0" parent="Htybzp_p4gf4UDhlRCsd-20">
          <mxGeometry x="0.0235" relative="1" as="geometry">
            <mxPoint as="offset" />
          </mxGeometry>
        </mxCell>
        <mxCell id="Htybzp_p4gf4UDhlRCsd-1" value="Git repo (GitLab)" style="image;sketch=0;aspect=fixed;html=1;points=[];align=center;fontSize=12;image=img/lib/mscae/Azure_Repos.svg;" vertex="1" parent="Htybzp_p4gf4UDhlRCsd-13">
          <mxGeometry x="27.5" y="19" width="45" height="50" as="geometry" />
        </mxCell>
        <mxCell id="Htybzp_p4gf4UDhlRCsd-8" value="Azure pipeline" style="image;sketch=0;aspect=fixed;html=1;points=[];align=center;fontSize=12;image=img/lib/mscae/Azure_Pipelines.svg;" vertex="1" parent="Htybzp_p4gf4UDhlRCsd-13">
          <mxGeometry x="25" y="167" width="50" height="50" as="geometry" />
        </mxCell>
        <mxCell id="Htybzp_p4gf4UDhlRCsd-22" value="" style="edgeStyle=orthogonalEdgeStyle;rounded=0;orthogonalLoop=1;jettySize=auto;html=1;" edge="1" parent="Htybzp_p4gf4UDhlRCsd-13">
          <mxGeometry relative="1" as="geometry">
            <mxPoint x="80" y="194" as="sourcePoint" />
            <mxPoint x="115" y="-13" as="targetPoint" />
          </mxGeometry>
        </mxCell>
        <mxCell id="Htybzp_p4gf4UDhlRCsd-24" value="Push&amp;nbsp; &lt;br&gt;container&lt;br&gt;&amp;nbsp;image" style="edgeLabel;html=1;align=center;verticalAlign=middle;resizable=0;points=[];" vertex="1" connectable="0" parent="Htybzp_p4gf4UDhlRCsd-22">
          <mxGeometry x="0.0646" y="-1" relative="1" as="geometry">
            <mxPoint as="offset" />
          </mxGeometry>
        </mxCell>
        <mxCell id="Htybzp_p4gf4UDhlRCsd-26" value="" style="endArrow=classic;html=1;rounded=0;" edge="1" parent="Htybzp_p4gf4UDhlRCsd-13">
          <mxGeometry width="50" height="50" relative="1" as="geometry">
            <mxPoint x="311" y="207" as="sourcePoint" />
            <mxPoint x="321" y="207" as="targetPoint" />
            <Array as="points">
              <mxPoint x="75" y="207" />
            </Array>
          </mxGeometry>
        </mxCell>
        <mxCell id="Htybzp_p4gf4UDhlRCsd-27" value="Deployment to AKS" style="edgeLabel;html=1;align=center;verticalAlign=middle;resizable=0;points=[];" vertex="1" connectable="0" parent="Htybzp_p4gf4UDhlRCsd-26">
          <mxGeometry x="0.3895" y="3" relative="1" as="geometry">
            <mxPoint x="66" as="offset" />
          </mxGeometry>
        </mxCell>
        <mxCell id="Htybzp_p4gf4UDhlRCsd-15" value="Azure DevOps" style="text;html=1;align=center;verticalAlign=middle;resizable=0;points=[];autosize=1;strokeColor=none;fillColor=none;" vertex="1" parent="1">
          <mxGeometry x="20" y="450" width="100" height="30" as="geometry" />
        </mxCell>
        <mxCell id="Htybzp_p4gf4UDhlRCsd-29" value="" style="swimlane;startSize=0;" vertex="1" parent="1">
          <mxGeometry x="330" y="60" width="480" height="610" as="geometry" />
        </mxCell>
        <mxCell id="Htybzp_p4gf4UDhlRCsd-30" value="Azure Kubernetes Service (AKS)" style="image;aspect=fixed;html=1;points=[];align=center;fontSize=12;image=img/lib/azure2/compute/Kubernetes_Services.svg;" vertex="1" parent="Htybzp_p4gf4UDhlRCsd-29">
          <mxGeometry x="210" width="45.33" height="40" as="geometry" />
        </mxCell>
      </root>
    </mxGraphModel>
  </diagram>
</mxfile>
